<svg width="1440" height="1024" viewBox="0 0 1440 1024" fill="none" xmlns="http://www.w3.org/2000/svg">
<rect width="1440" height="1024" fill="black"/>
<path d="M716.69 512.5C716.69 551.431 689.386 582 656.845 582C624.304 582 597 551.431 597 512.5C597 473.569 624.304 443 656.845 443C689.386 443 716.69 473.569 716.69 512.5Z" fill="white"/>
<path d="M716.69 512.5C716.69 551.431 689.386 582 656.845 582C624.304 582 597 551.431 597 512.5C597 473.569 624.304 443 656.845 443C689.386 443 716.69 473.569 716.69 512.5Z" fill="white"/>
<path d="M716.69 512.5C716.69 551.431 689.386 582 656.845 582C624.304 582 597 551.431 597 512.5C597 473.569 624.304 443 656.845 443C689.386 443 716.69 473.569 716.69 512.5Z" stroke="black" stroke-width="8"/>
<path d="M842 512.5C842 551.431 814.696 582 782.155 582C749.614 582 722.311 551.431 722.311 512.5C722.311 473.569 749.614 443 782.155 443C814.696 443 842 473.569 842 512.5Z" fill="white"/>
<path d="M842 512.5C842 551.431 814.696 582 782.155 582C749.614 582 722.311 551.431 722.311 512.5C722.311 473.569 749.614 443 782.155 443C814.696 443 842 473.569 842 512.5Z" fill="white"/>
<path d="M842 512.5C842 551.431 814.696 582 782.155 582C749.614 582 722.311 551.431 722.311 512.5C722.311 473.569 749.614 443 782.155 443C814.696 443 842 473.569 842 512.5Z" stroke="black" stroke-width="8"/>
<circle cx="782" cy="513" r="45" fill="black"/>
<circle cx="777" cy="506" r="12" fill="white"/>
<circle cx="793" cy="522" r="4" fill="white"/>
<circle cx="657" cy="513" r="45" fill="black"/>
<circle cx="652" cy="506" r="12" fill="white"/>
<circle cx="668" cy="522" r="4" fill="white"/>
<rect x="497" y="269" width="448" height="289" fill="black"/>
</svg>
